<?xml version="1.0" standalone="no"?>
<!DOCTYPE svg PUBLIC "-//W3C//DTD SVG 20010904//EN"
 "http://www.w3.org/TR/2001/REC-SVG-20010904/DTD/svg10.dtd">
<svg version="1.0" xmlns="http://www.w3.org/2000/svg"
 width="260.000000pt" height="260.000000pt" viewBox="0 0 260.000000 260.000000"
 preserveAspectRatio="xMidYMid meet">
<metadata>
Created by potrace 1.11, written by Peter Selinger 2001-2013
</metadata>
<g transform="translate(0.000000,260.000000) scale(0.100000,-0.100000)"
fill="#000000" stroke="none">
<path d="M1200 2200 c0 -132 -4 -139 -58 -102 -15 10 -44 26 -64 35 -20 10
-40 22 -43 27 -3 6 -12 10 -18 10 -14 0 -107 -133 -107 -153 0 -7 44 -35 98
-62 53 -27 99 -52 102 -55 3 -4 21 -15 40 -26 19 -10 38 -23 42 -29 4 -5 8
-92 8 -192 0 -204 -1 -206 -64 -160 -17 12 -44 29 -61 37 -16 8 -32 17 -35 20
-3 3 -36 21 -75 40 -38 18 -77 43 -85 54 -11 16 -16 61 -20 181 l-5 160 -95 0
-95 0 -3 -102 c-2 -73 -6 -103 -15 -103 -14 0 -167 77 -181 91 -18 17 -43 10
-61 -17 -9 -14 -30 -50 -46 -79 l-29 -53 57 -28 c61 -30 163 -95 163 -104 0
-3 -31 -20 -68 -38 -37 -18 -78 -42 -91 -53 l-24 -20 34 -65 c19 -36 42 -72
51 -81 15 -14 20 -13 47 6 16 12 33 21 39 21 5 0 14 6 20 13 6 7 54 34 107 61
l97 49 71 -38 c86 -45 110 -58 162 -91 22 -13 55 -32 73 -41 35 -18 42 -33 15
-33 -9 0 -31 -11 -49 -25 -18 -14 -77 -48 -130 -75 -54 -28 -105 -57 -114 -65
-21 -19 -39 -19 -60 0 -9 8 -61 38 -116 66 -54 28 -106 57 -115 65 -8 8 -21
14 -27 14 -20 0 -102 -124 -102 -154 0 -7 38 -32 85 -55 47 -24 88 -48 92 -53
3 -6 -5 -19 -18 -29 -23 -17 -35 -24 -96 -51 -16 -7 -45 -23 -65 -37 l-38 -23
20 -28 c11 -16 20 -33 20 -39 0 -6 3 -11 8 -11 4 0 15 -18 25 -40 20 -47 40
-51 82 -14 16 14 45 32 65 40 19 9 47 22 62 30 14 8 31 14 37 14 6 0 11 -39
13 -102 l3 -103 95 0 95 0 3 163 2 162 68 43 c37 23 99 58 137 77 39 19 83 43
98 53 16 11 31 17 33 14 3 -3 6 -87 5 -186 0 -210 5 -197 -112 -255 -117 -59
-179 -96 -179 -109 0 -4 16 -33 35 -63 19 -30 35 -57 35 -60 0 -3 6 -12 14
-19 11 -12 19 -12 40 -2 14 7 26 15 26 20 0 4 9 7 20 7 11 0 23 7 26 15 4 8
11 15 16 15 5 0 23 9 40 21 16 12 32 18 35 15 4 -4 7 -61 7 -129 l1 -122 99 0
99 0 -2 121 c-2 85 1 124 9 129 7 4 15 4 19 -1 3 -5 20 -16 36 -24 17 -8 32
-17 35 -20 21 -22 92 -59 104 -54 17 6 46 47 46 64 0 6 11 27 25 48 l25 36
-22 20 c-19 18 -89 57 -193 108 -86 43 -85 40 -85 234 0 95 3 180 6 189 6 14
8 14 23 1 9 -8 59 -36 112 -64 53 -27 112 -61 131 -75 19 -15 40 -27 45 -27
30 0 38 -35 40 -184 1 -83 3 -155 3 -159 0 -4 42 -6 93 -5 l92 3 3 107 c1 60
4 108 7 108 6 0 116 -61 164 -92 25 -15 50 -28 56 -28 6 0 22 23 35 51 13 28
35 62 48 76 l24 26 -23 18 c-13 10 -30 19 -36 19 -7 0 -13 3 -13 8 0 4 -34 23
-75 42 -45 21 -75 41 -75 50 0 9 17 24 38 34 152 75 150 73 115 135 -14 25
-33 58 -40 74 -16 30 -59 38 -69 12 -4 -8 -11 -15 -16 -15 -5 0 -22 -8 -36
-19 -15 -10 -44 -24 -64 -32 -21 -7 -38 -17 -38 -21 0 -4 -5 -8 -11 -8 -5 0
-27 -11 -47 -25 -41 -28 -67 -32 -75 -12 -3 8 -38 30 -79 51 -40 20 -95 50
-123 66 -27 17 -62 35 -77 42 -16 7 -28 15 -28 18 0 6 32 27 85 54 22 12 61
36 87 54 26 17 50 32 55 32 4 0 31 12 59 26 51 26 51 26 90 8 21 -9 51 -26 66
-36 14 -10 32 -18 39 -18 6 0 26 -11 44 -24 17 -14 49 -34 70 -46 46 -26 49
-23 98 71 l35 65 -22 21 c-13 12 -53 36 -89 54 -37 17 -67 35 -67 39 0 11 59
53 115 80 28 14 52 28 53 33 2 4 12 7 22 7 32 0 32 18 -3 67 -18 26 -39 60
-47 76 -7 15 -19 27 -26 27 -12 0 -179 -85 -201 -102 -18 -15 -22 3 -25 112
l-3 95 -93 0 -94 0 -1 -161 c-2 -189 7 -172 -137 -245 -47 -24 -108 -58 -137
-76 -86 -54 -83 -59 -83 151 l0 185 29 20 c16 12 34 21 41 21 6 0 26 11 44 25
18 14 65 41 105 60 78 38 86 54 53 103 -10 15 -27 44 -37 65 -20 38 -56 51
-72 24 -10 -16 -129 -77 -149 -77 -13 0 -15 20 -13 118 l1 117 -101 3 -101 3
0 -121z"/>
</g>
</svg>
